<svg width="600" height="425" viewBox="0 0 600 425" fill="#ffffff" xmlns="http://www.w3.org/2000/svg">
    <g id="design" clip-path="url(#clip0_1_11)">
        <path d="M0 425L48.4444 389.583C96.8889 354.167 193.778 283.333 221.511 212.5C249.156 141.667 207.733 70.8333 186.933 35.4167L166.222 0H600.889V35.4167C600.889 70.8333 600.889 141.667 600.889 212.5C600.889 283.333 600.889 354.167 600.889 389.583V425H0Z" fill="#FF9BE6"/>
        <path d="M271.111 425L296.711 389.583C322.4 354.167 373.6 283.333 358.489 212.5C343.378 141.667 261.956 70.8333 221.156 35.4167L180.444 0H600V35.4167C600 70.8333 600 141.667 600 212.5C600 283.333 600 354.167 600 389.583V425H271.111Z" fill="#FF00CC"/>
    </g>
    <defs>
        <clipPath id="clip0_1_11">
            <rect width="600" height="425" fill="white"/>
        </clipPath>
    </defs>
</svg>
